<svg width="142" height="36" viewBox="0 0 142 36" fill="none" xmlns="http://www.w3.org/2000/svg">
<path d="M0.984 35V1.4H8.76V28.664H25.608V35H0.984ZM45.7103 35.576C43.0543 35.576 40.5903 35.144 38.3183 34.28C36.0783 33.416 34.1263 32.2 32.4622 30.632C30.8303 29.064 29.5503 27.224 28.6223 25.112C27.7263 23 27.2783 20.696 27.2783 18.2C27.2783 15.704 27.7263 13.4 28.6223 11.288C29.5503 9.176 30.8463 7.336 32.5103 5.768C34.1743 4.2 36.1263 2.984 38.3663 2.12C40.6063 1.256 43.0383 0.823999 45.6623 0.823999C48.3183 0.823999 50.7502 1.256 52.9583 2.12C55.1983 2.984 57.1343 4.2 58.7663 5.768C60.4303 7.336 61.7263 9.176 62.6543 11.288C63.5823 13.368 64.0463 15.672 64.0463 18.2C64.0463 20.696 63.5823 23.016 62.6543 25.16C61.7263 27.272 60.4303 29.112 58.7663 30.68C57.1343 32.216 55.1983 33.416 52.9583 34.28C50.7502 35.144 48.3342 35.576 45.7103 35.576ZM45.6623 28.952C47.1663 28.952 48.5423 28.696 49.7903 28.184C51.0703 27.672 52.1903 26.936 53.1503 25.976C54.1103 25.016 54.8463 23.88 55.3583 22.568C55.9023 21.256 56.1743 19.8 56.1743 18.2C56.1743 16.6 55.9023 15.144 55.3583 13.832C54.8463 12.52 54.1103 11.384 53.1503 10.424C52.2223 9.464 51.1183 8.728 49.8383 8.216C48.5583 7.704 47.1663 7.448 45.6623 7.448C44.1583 7.448 42.7663 7.704 41.4863 8.216C40.2383 8.728 39.1343 9.464 38.1743 10.424C37.2143 11.384 36.4623 12.52 35.9183 13.832C35.4063 15.144 35.1503 16.6 35.1503 18.2C35.1503 19.768 35.4063 21.224 35.9183 22.568C36.4623 23.88 37.1983 25.016 38.1263 25.976C39.0863 26.936 40.2063 27.672 41.4863 28.184C42.7663 28.696 44.1583 28.952 45.6623 28.952ZM69.8903 35V1.4H86.3063C90.5303 1.4 93.6983 2.2 95.8103 3.8C97.9543 5.4 99.0263 7.512 99.0263 10.136C99.0263 11.896 98.5943 13.432 97.7303 14.744C96.8663 16.024 95.6823 17.016 94.1783 17.72C92.6743 18.424 90.9463 18.776 88.9943 18.776L89.9062 16.808C92.0183 16.808 93.8903 17.16 95.5223 17.864C97.1543 18.536 98.4183 19.544 99.3143 20.888C100.242 22.232 100.706 23.88 100.706 25.832C100.706 28.712 99.5703 30.968 97.2983 32.6C95.0263 34.2 91.6823 35 87.2663 35H69.8903ZM77.6183 29.144H86.6903C88.7063 29.144 90.2263 28.824 91.2502 28.184C92.3063 27.512 92.8343 26.456 92.8343 25.016C92.8343 23.608 92.3063 22.568 91.2502 21.896C90.2263 21.192 88.7063 20.84 86.6903 20.84H77.0423V15.176H85.3463C87.2343 15.176 88.6743 14.856 89.6663 14.216C90.6903 13.544 91.2023 12.536 91.2023 11.192C91.2023 9.88 90.6903 8.904 89.6663 8.264C88.6743 7.592 87.2343 7.256 85.3463 7.256H77.6183V29.144ZM122.913 35.576C120.257 35.576 117.793 35.144 115.521 34.28C113.281 33.416 111.329 32.2 109.665 30.632C108.033 29.064 106.753 27.224 105.825 25.112C104.929 23 104.481 20.696 104.481 18.2C104.481 15.704 104.929 13.4 105.825 11.288C106.753 9.176 108.049 7.336 109.713 5.768C111.377 4.2 113.329 2.984 115.569 2.12C117.809 1.256 120.241 0.823999 122.865 0.823999C125.521 0.823999 127.953 1.256 130.161 2.12C132.401 2.984 134.337 4.2 135.969 5.768C137.633 7.336 138.929 9.176 139.857 11.288C140.785 13.368 141.249 15.672 141.249 18.2C141.249 20.696 140.785 23.016 139.857 25.16C138.929 27.272 137.633 29.112 135.969 30.68C134.337 32.216 132.401 33.416 130.161 34.28C127.953 35.144 125.537 35.576 122.913 35.576ZM122.865 28.952C124.369 28.952 125.745 28.696 126.993 28.184C128.273 27.672 129.393 26.936 130.353 25.976C131.313 25.016 132.049 23.88 132.561 22.568C133.105 21.256 133.377 19.8 133.377 18.2C133.377 16.6 133.105 15.144 132.561 13.832C132.049 12.52 131.313 11.384 130.353 10.424C129.425 9.464 128.321 8.728 127.041 8.216C125.761 7.704 124.369 7.448 122.865 7.448C121.361 7.448 119.969 7.704 118.689 8.216C117.441 8.728 116.337 9.464 115.377 10.424C114.417 11.384 113.665 12.52 113.121 13.832C112.609 15.144 112.353 16.6 112.353 18.2C112.353 19.768 112.609 21.224 113.121 22.568C113.665 23.88 114.401 25.016 115.329 25.976C116.289 26.936 117.409 27.672 118.689 28.184C119.969 28.696 121.361 28.952 122.865 28.952Z" fill="#141414"/>
</svg>
